<svg aria-hidden="true" viewBox="0 0 177 260" fill="none" xmlns="http://www.w3.org/2000/svg">
<path d="M104.022 128.665C101.048 128.665 98.6399 131.073 98.6399 134.047V141.779C98.6399 142.486 98.7791 143.186 99.0496 143.838C99.32 144.491 99.7165 145.085 100.216 145.585C100.716 146.084 101.309 146.481 101.962 146.751C102.615 147.022 103.315 147.161 104.022 147.161C104.729 147.161 105.429 147.022 106.081 146.751C106.734 146.481 107.328 146.084 107.828 145.585C108.327 145.085 108.724 144.491 108.994 143.838C109.265 143.186 109.404 142.486 109.404 141.779V141.618V141.628V134.047C109.404 131.078 106.996 128.665 104.027 128.665H104.022ZM141.628 98.64H134.047C132.659 98.6985 131.348 99.2907 130.386 100.293C129.425 101.296 128.887 102.631 128.887 104.02C128.886 105.409 129.422 106.744 130.383 107.748C131.343 108.751 132.654 109.344 134.042 109.404H141.633C143.02 109.346 144.332 108.753 145.293 107.751C146.255 106.748 146.792 105.413 146.793 104.024C146.793 102.635 146.257 101.3 145.297 100.296C144.336 99.2932 143.025 98.6997 141.637 98.64H141.628ZM129.055 121.445C128.033 120.504 126.686 119.995 125.297 120.024C123.908 120.053 122.584 120.618 121.602 121.602C120.62 122.585 120.056 123.91 120.029 125.299C120.001 126.688 120.512 128.034 121.455 129.055L121.45 129.05L126.808 134.408C127.299 134.941 127.893 135.37 128.554 135.668C129.215 135.967 129.929 136.128 130.654 136.143C131.379 136.159 132.1 136.027 132.773 135.757C133.446 135.487 134.057 135.083 134.57 134.571C135.084 134.058 135.488 133.447 135.759 132.775C136.03 132.102 136.162 131.382 136.148 130.657C136.134 129.932 135.973 129.217 135.676 128.555C135.378 127.894 134.95 127.3 134.418 126.808L134.413 126.803L129.055 121.445ZM72.9828 48.3398C75.9565 48.3398 78.3648 45.9315 78.3648 42.9578V35.382C78.3063 33.9942 77.714 32.6826 76.7116 31.7211C75.7092 30.7596 74.3741 30.2224 72.9851 30.2218C71.5961 30.2212 70.2605 30.7571 69.2572 31.7177C68.2539 32.6784 67.6605 33.9894 67.6008 35.3771V42.9626C67.6008 45.9315 70.009 48.3446 72.9779 48.3446L72.9828 48.3398ZM42.9576 78.36H43.1088C44.5361 78.36 45.9051 77.793 46.9144 76.7837C47.9237 75.7743 48.4908 74.4054 48.4908 72.978C48.4908 71.5506 47.9237 70.1817 46.9144 69.1724C45.9051 68.163 44.5361 67.596 43.1088 67.596H42.9479H42.9576H35.3819C33.9941 67.6545 32.6825 68.2467 31.721 69.2491C30.7595 70.2516 30.2223 71.5866 30.2217 72.9757C30.2211 74.3647 30.757 75.7003 31.7176 76.7036C32.6782 77.7069 33.9893 78.3003 35.377 78.36H35.3868H42.9576ZM47.9496 55.5596C48.4408 56.0932 49.0347 56.5219 49.6958 56.8202C50.3568 57.1184 51.0713 57.28 51.7963 57.2952C52.5214 57.3104 53.242 57.179 53.915 56.9087C54.5879 56.6385 55.1993 56.235 55.7124 55.7225C56.2256 55.21 56.6298 54.5992 56.9009 53.9266C57.1721 53.2539 57.3045 52.5335 57.2902 51.8084C57.2759 51.0834 57.1152 50.3687 56.8178 49.7073C56.5204 49.0458 56.0924 48.4514 55.5595 47.9595L55.5546 47.9546L50.197 42.597C49.7058 42.0635 49.1119 41.6347 48.4509 41.3364C47.7898 41.0382 47.0754 40.8766 46.3503 40.8614C45.6253 40.8462 44.9046 40.9777 44.2317 41.2479C43.5587 41.5182 42.9473 41.9217 42.4342 42.4341C41.9211 42.9466 41.5168 43.5575 41.2457 44.2301C40.9746 44.9027 40.8422 45.6232 40.8565 46.3482C40.8707 47.0733 41.0314 47.788 41.3288 48.4494C41.6262 49.1108 42.0542 49.7053 42.5871 50.1971L42.592 50.202L47.9496 55.5596ZM99.9171 115.137C100.858 114.115 101.368 112.768 101.338 111.379C101.309 109.99 100.744 108.666 99.7607 107.684C98.7776 106.702 97.4528 106.138 96.0635 106.111C94.6743 106.083 93.3283 106.594 92.3073 107.537L92.3121 107.532L77.1021 122.742C74.0359 125.566 69.9963 127.095 65.8287 127.008C61.6611 126.921 57.6885 125.226 54.7422 122.278C51.7959 119.329 50.1042 115.355 50.0212 111.187C49.9382 107.019 51.4703 102.981 54.2969 99.9173L54.2871 99.927L69.4971 84.717C70.0307 84.2258 70.4594 83.6319 70.7577 82.9709C71.0559 82.3098 71.2175 81.5954 71.2327 80.8703C71.248 80.1453 71.1165 79.4246 70.8462 78.7517C70.576 78.0787 70.1725 77.4673 69.66 76.9542C69.1475 76.4411 68.5367 76.0368 67.8641 75.7657C67.1914 75.4946 66.471 75.3622 65.7459 75.3765C65.0209 75.3907 64.3062 75.5514 63.6448 75.8488C62.9833 76.1462 62.3889 76.5742 61.897 77.1071L61.8921 77.112L46.6821 92.322C42.9217 96.0848 40.3609 100.878 39.3232 106.095C38.2856 111.313 38.8177 116.721 40.8522 121.636C42.8868 126.551 46.3325 130.753 50.7542 133.711C55.1758 136.669 60.3749 138.25 65.6946 138.254H65.758C69.2804 138.258 72.7687 137.564 76.0212 136.212C79.2737 134.86 82.2259 132.876 84.7071 130.376L99.9171 115.137ZM130.352 46.6335C127.871 44.1333 124.918 42.1498 121.666 40.7976C118.413 39.4453 114.925 38.7513 111.403 38.7555H111.339H111.344H111.281C107.758 38.7513 104.27 39.4453 101.018 40.7976C97.765 42.1498 94.8128 44.1333 92.3316 46.6335L77.1216 61.8435C76.5881 62.3347 76.1593 62.9286 75.8611 63.5896C75.5628 64.2507 75.4012 64.9652 75.386 65.6902C75.3708 66.4152 75.5023 67.1359 75.7725 67.8088C76.0428 68.4818 76.4463 69.0932 76.9588 69.6063C77.4712 70.1194 78.0821 70.5237 78.7547 70.7948C79.4273 71.0659 80.1478 71.1983 80.8728 71.1841C81.5979 71.1698 82.3126 71.0091 82.974 70.7117C83.6354 70.4143 84.2299 69.9863 84.7218 69.4534L84.7266 69.4485L99.9366 54.2385C101.414 52.6521 103.196 51.3796 105.176 50.4968C107.156 49.614 109.294 49.1389 111.461 49.1C113.629 49.0611 115.782 49.4592 117.793 50.2703C119.803 51.0815 121.63 52.2893 123.163 53.8216C124.697 55.3539 125.906 57.1794 126.719 59.1891C127.532 61.1989 127.932 63.3518 127.895 65.5194C127.858 67.687 127.385 69.825 126.503 71.8058C125.622 73.7866 124.351 75.5696 122.766 77.0486L122.757 77.0584L107.547 92.2684C107.013 92.7596 106.584 93.3535 106.286 94.0145C105.988 94.6755 105.826 95.39 105.811 96.1151C105.796 96.8401 105.927 97.5607 106.197 98.2337C106.468 98.9067 106.871 99.5181 107.384 100.031C107.896 100.544 108.507 100.949 109.18 101.22C109.852 101.491 110.573 101.623 111.298 101.609C112.023 101.595 112.737 101.434 113.399 101.137C114.06 100.839 114.655 100.411 115.147 99.8783L115.151 99.8734L130.362 84.6634C135.217 79.7933 138.215 73.0706 138.215 65.6509C138.215 58.2311 135.212 51.5085 130.357 46.6384L130.352 46.6335Z" fill="currentColor"/>
<path d="M52.1666 225.071V219.034H36.0865C34.0587 219.034 32.5351 218.569 31.5212 217.64C30.5073 216.709 30 215.443 30 213.843C30 213.433 30.0746 213.016 30.2245 212.593C30.3743 212.172 30.5988 211.729 30.8971 211.261C31.1945 210.796 31.5059 210.349 31.8256 209.915C32.1454 209.482 32.542 208.951 33.0117 208.325L49.9882 185.316C51.0982 183.802 52.0121 182.704 52.7278 182.023C53.4442 181.342 54.3036 181 55.3067 181C58.5529 181 60.1764 182.882 60.1764 186.646V211.765H61.5539C63.1988 211.765 64.5171 211.991 65.5095 212.446C66.5019 212.899 67 213.896 67 215.43C67 216.684 66.5934 217.599 65.7832 218.173C64.9722 218.746 63.7554 219.033 62.1327 219.033H60.1787V225.069C60.1787 226.735 59.8151 227.972 59.0902 228.783C58.3638 229.595 57.3929 230 56.1746 230C54.9562 230 54.0115 229.583 53.2766 228.75C52.5387 227.916 52.1713 226.689 52.1713 225.066L52.1666 225.071ZM38.3925 211.766H52.1666V192.911L38.3925 211.766Z" fill="currentColor"/>
<path d="M105.998 205.762C105.998 209.335 105.77 212.404 105.315 214.974C104.86 217.543 104.017 219.874 102.786 221.964C101.238 224.534 99.2313 226.516 96.7706 227.91C94.309 229.303 91.5743 230 88.5673 230C85.1025 230 81.9987 229.063 79.2542 227.19C76.5071 225.317 74.4409 222.725 73.0498 219.416C72.3444 217.61 71.8243 215.611 71.4946 213.423C71.1649 211.234 71 208.866 71 206.316C71 203.027 71.1805 200.067 71.5479 197.431C71.9121 194.797 72.4814 192.531 73.2565 190.635C74.6009 187.5 76.5564 185.11 79.1196 183.466C81.6829 181.821 84.7433 181 88.2958 181C90.6433 181 92.7719 181.364 94.688 182.094C96.6008 182.824 98.2823 183.892 99.7284 185.296C101.175 186.701 102.401 188.439 103.401 190.507C105.134 194.099 106 199.186 106 205.762H105.998ZM96.6336 205.109C96.6336 201.124 96.3826 197.864 95.8814 195.324C95.3794 192.788 94.537 190.871 93.3526 189.574C92.1681 188.279 90.5268 187.631 88.4303 187.631C85.4232 187.631 83.3316 189.08 82.1587 191.976C80.9841 194.872 80.3984 199.337 80.3984 205.369C80.3984 209.464 80.6494 212.817 81.1514 215.431C81.6526 218.045 82.4958 220.02 83.6794 221.361C84.8638 222.701 86.4707 223.369 88.5 223.369C90.5293 223.369 92.2354 222.672 93.4223 221.279C94.6067 219.885 95.4401 217.892 95.9183 215.3C96.3965 212.708 96.636 209.31 96.636 205.107L96.6336 205.109Z" fill="currentColor"/>
<path d="M132.166 225.071V219.034H116.086C114.058 219.034 112.534 218.569 111.521 217.64C110.507 216.709 110 215.443 110 213.843C110 213.433 110.074 213.016 110.224 212.593C110.374 212.172 110.598 211.729 110.896 211.261C111.195 210.796 111.506 210.349 111.826 209.915C112.145 209.482 112.541 208.951 113.011 208.325L129.989 185.316C131.098 183.802 132.012 182.704 132.728 182.023C133.444 181.342 134.303 181 135.306 181C138.553 181 140.176 182.882 140.176 186.646V211.765H141.554C143.199 211.765 144.517 211.991 145.509 212.446C146.502 212.899 147 213.896 147 215.43C147 216.684 146.593 217.599 145.784 218.173C144.972 218.746 143.756 219.033 142.133 219.033H140.179V225.069C140.179 226.735 139.815 227.972 139.089 228.783C138.361 229.595 137.391 230 136.173 230C134.954 230 134.01 229.583 133.274 228.75C132.536 227.916 132.169 226.689 132.169 225.066L132.166 225.071ZM118.393 211.766H132.166V192.911L118.393 211.766Z" fill="currentColor"/>
</svg>
