<?xml version="1.0" encoding="utf-8"?>
<!-- Generator: Adobe Illustrator 26.0.2, SVG Export Plug-In . SVG Version: 6.00 Build 0)  -->
<svg version="1.1" id="Layer_1" xmlns="http://www.w3.org/2000/svg" xmlns:xlink="http://www.w3.org/1999/xlink" x="0px" y="0px"
	 viewBox="0 0 226 422" style="enable-background:new 0 0 226 422;" xml:space="preserve">
<style type="text/css">
	.st0{fill-rule:evenodd;clip-rule:evenodd;fill:#EB4D89;}
	.st1{fill-rule:evenodd;clip-rule:evenodd;fill:#1D006B;}
	.st2{fill-rule:evenodd;clip-rule:evenodd;fill:#F9B6A8;}
	.st3{fill-rule:evenodd;clip-rule:evenodd;fill:#FFFFFE;}
	.st4{fill-rule:evenodd;clip-rule:evenodd;fill:#FAFBFD;}
	.st5{fill-rule:evenodd;clip-rule:evenodd;fill:#FAC50B;}
	.st6{fill-rule:evenodd;clip-rule:evenodd;fill:#6038CC;}
</style>
<path class="st0" d="M101.5,149.9c-1.2,17.7-1.8,38.2-1.8,61.5c0,46.7,2.6,81.9,7.8,105.4c5.2,23.5,14.2,35.3,27,35.3
	c0.1,0,0.1,0,0.2,0V422c-0.1,0-0.1,0-0.2,0c-15.3,0-28.7-4.8-40.1-14.3c-11.4-9.5-20.8-23.4-28.3-41.5C58.6,348.1,53,326,49.4,300
	c-3.7-26-5.5-55.5-5.5-88.6c0-33.1,1.7-62.7,5-88.9c3.3-26.2,8.6-48.3,15.9-66.5c7.2-18.1,16.6-32,28.1-41.6
	C104.3,4.8,118.2,0,134.5,0h0.2v70.1h-0.2c-6.4,0-11.8,3-16.2,9c-4.4,6-8,14.9-10.8,26.6C104.7,117.5,102.7,132.2,101.5,149.9z"/>
<path class="st1" d="M67.7,99.3l3.2,0.5l-5.5,36l-3.2-0.5L67.7,99.3z"/>
<path class="st2" d="M133.8,144.4c8.5-9.2,12.6-26.9,9.3-37.2c-7,1.6-12.9,3.2-16.9,4.3c-3.6,1-7.3-0.7-8.9-4.1L110.7,93
	c0,0,9-13.4,4.4-15.4c-4.5-2-9.6,7.8-9.6,7.8l-8.8-27.6H82.6l-13.3,6.1c0,0,7.9,35.9,10.4,43c2.6,7.1,14.2,4,14.2,4l6.8,16.5
	c-6.1,5.3-12.1,11.4-17.6,17.9C90.5,159.9,122.8,155.4,133.8,144.4z"/>
<path class="st0" d="M84.6,97.1c0,0-5.8-10.9-3.8-13.3c2-2.4,8.6,10.2,8.6,10.2L84.6,97.1z"/>
<path class="st3" d="M133.8,155.3c17-9.8,17.8-31.6,17.9-49.9c-3,0.6-5.9,1.2-8.6,1.9c0.6,13.2-3.3,26.2-11.8,35.4
	c-11,11-36.1,15.3-48.2,2.5c-2.5,2.9-4.9,5.9-7.2,8.8C91.7,164.3,117.7,164.6,133.8,155.3z"/>
<path class="st4" d="M84.6,85c0-7.3-5.9-13.2-13.2-13.2c-7.3,0-13.2,5.9-13.2,13.2c0,7.3,5.9,13.2,13.2,13.2
	C78.7,98.3,84.6,92.4,84.6,85z"/>
<path class="st2" d="M48.5,130.8c0,0,10.2-20.1,12.3-20.8c2.1-0.8,14.5,3,15.1,3.8c0.6,0.8-5.1,17-5.1,17l-7-0.8l-2.9,7L48.5,130.8z
	"/>
<path class="st0" d="M93.9,110.9l5.9-1.9l-4.6,4.9L93.9,110.9z"/>
<path class="st0" d="M58.8,128.7l5.1,0.9l-0.1,0.8l-5.1-0.9L58.8,128.7z"/>
<path class="st0" d="M107.8,89.5c-0.1,0-0.2,0-0.2-0.1c-0.2-0.1-0.2-0.4-0.1-0.6l5.4-8.1c0.1-0.2,0.4-0.2,0.6-0.1
	c0.2,0.1,0.2,0.4,0.1,0.6l-5.4,8.1C108,89.4,107.9,89.5,107.8,89.5z"/>
<path class="st1" d="M94.7,79.2c0-1.2-0.9-2.1-2.1-2.1c-1.2,0-2.1,0.9-2.1,2.1c0,1.2,0.9,2.1,2.1,2.1C93.8,81.3,94.7,80.4,94.7,79.2
	z"/>
<path class="st1" d="M73.2,83.7c-1.1,0-2-0.9-2-2c0-0.1,0-0.3,0.1-0.4c-2,0.1-3.6,1.7-3.6,3.7c0,2.1,1.7,3.7,3.7,3.7
	c2.1,0,3.7-1.7,3.7-3.7c0-0.7-0.2-1.4-0.5-1.9C74.2,83.5,73.7,83.7,73.2,83.7z"/>
<path class="st1" d="M71.4,97.1c-6.7,0-12.1-5.4-12.1-12.1S64.7,73,71.4,73c6.7,0,12.1,5.4,12.1,12.1S78.1,97.1,71.4,97.1z
	 M71.4,69.2c-8.7,0-15.8,7.1-15.8,15.8c0,8.7,7.1,15.8,15.8,15.8c8.7,0,15.8-7.1,15.8-15.8C87.2,76.3,80.1,69.2,71.4,69.2z"/>
<path class="st1" d="M66.1,81.5c-0.1,0-0.2,0-0.3-0.1c-0.4-0.2-0.6-0.7-0.4-1.1c0.6-1.3,1.7-2.4,3.1-3c1.3-0.6,2.9-0.6,4.3-0.1
	c0.4,0.2,0.6,0.6,0.5,1c-0.2,0.4-0.6,0.6-1,0.5c-1-0.4-2.1-0.3-3.1,0.1c-1,0.4-1.8,1.2-2.2,2.2C66.7,81.3,66.4,81.5,66.1,81.5z"/>
<path class="st1" d="M87.7,76.1c-0.1,0-0.1,0-0.2,0c-0.2-0.1-0.3-0.3-0.2-0.5c0.5-1,1.5-1.8,2.6-2.1c1.1-0.3,2.3-0.1,3.3,0.5
	c0.2,0.1,0.2,0.4,0.1,0.6c-0.1,0.2-0.4,0.2-0.6,0.1c-0.8-0.5-1.8-0.6-2.7-0.4c-0.9,0.3-1.7,0.9-2.1,1.7C88,76.1,87.8,76.1,87.7,76.1
	z"/>
<path class="st0" d="M87.3,103.5c-0.2,0-0.3,0-0.5-0.2c-0.4-0.3-0.4-0.8-0.2-1.1c1.4-1.9,3.5-3.2,5.9-3.5c0.4-0.1,0.8,0.2,0.9,0.7
	c0.1,0.4-0.2,0.8-0.7,0.9c-1.9,0.3-3.7,1.3-4.8,2.9C87.8,103.4,87.5,103.5,87.3,103.5z"/>
<path class="st5" d="M105.6,85.3l-2,2.3l-11-29.8c0,0-18.2,16.2-28.5,6.2c-8-7.9,2.2-25.3,17.3-13.4c0,0,16.9-8.4,21.6,4.9
	c4.6,13.4,7.4,23.8,7.4,23.8L105.6,85.3z"/>
<path class="st6" d="M166.5,102.6c-3,0.5-12,2.3-14.8,2.9c-0.1,18.3-4.4,37.6-21.4,47.4c-16.1,9.3-38.6,11.5-54.4,1.2
	c-18.9,24.2-32,49.4-32,49.4l19.3-65.3l-14.8-7.4c-6.8,10.8-40.3,81.8-46,107.9c-5.7,26.1-1.7,37.5,13.6,46.6
	c15.3,9.1,76.7-43.7,76.7-43.7L142,357.9C185.4,361.4,212.5,108.2,166.5,102.6z"/>
<path class="st1" d="M92.8,241.5l-8.2-20l1.8,25.3L92.8,241.5z"/>
<path class="st1" d="M43.9,203.5L39.7,225l13-37.1L43.9,203.5z"/>
<path class="st0" d="M100.8,127.3l3.2,7.3l-5.7-5.1L100.8,127.3z"/>
<path class="st1" d="M16,74.7l14.5,0.8l-0.1,1.6l-14.5-0.8L16,74.7z"/>
<path class="st1" d="M17.3,44.9l22.7,11.7l-0.7,1.4L16.5,46.3L17.3,44.9z"/>
<path class="st1" d="M31,28l10,10.9l-1.2,1.1l-10-10.9L31,28z"/>
<path class="st0" d="M225.5,211.4c0,33.1-1.7,62.6-5,88.6c-3.3,26-8.6,48.1-16,66.2c-7.3,18.1-16.7,32-28.3,41.5
	c-11.5,9.5-25.4,14.3-41.6,14.3v-69.8c12.5-0.1,21.4-11.8,26.9-35c5.5-23.4,8.2-58.6,8.2-105.7c0-46.9-2.8-82.2-8.2-105.8
	c-5.5-23.5-14.5-35.4-26.9-35.5V0c15.1,0,28.4,4.8,39.7,14.3c11.4,9.5,20.8,23.4,28.5,41.5s13.3,40.3,17,66.5
	C223.6,148.4,225.5,178.2,225.5,211.4z"/>
<path class="st2" d="M168.5,195.3l-5.1-17.4l2.4-19l16.3,7.9v13.2l-13.1,0.7l0.5,11.3L168.5,195.3z"/>
</svg>
