
<svg aria-hidden="true" viewBox="0 0 30 34" fill="none" xmlns="http://www.w3.org/2000/svg">
<path d="M29.6667 8.66667C29.5 7.66667 28.5 7.16667 27.6667 7.33333C23.5 8.33333 19.1667 8.66667 15 8.66667C10.8333 8.66667 6.50001 8.33333 2.50001 7.33333C1.50001 7.16667 0.666675 7.66667 0.333341 8.66667C0.166675 9.5 0.666674 10.5 1.66667 10.6667C4.33334 11.3333 7.16668 11.8333 10 12V32C10 32.8333 10.6667 33.6667 11.6667 33.6667C12.6667 33.6667 13.3333 32.8333 13.3333 32V23.6667H16.6667V32C16.6667 32.8333 17.3333 33.6667 18.3333 33.6667C19.3333 33.6667 20 32.8333 20 32V12C22.6667 11.8333 25.6667 11.3333 28.3333 10.6667C29.1667 10.5 29.8333 9.66667 29.6667 8.66667ZM15 7C16.8333 7 18.3333 5.5 18.3333 3.66667C18.3333 1.83333 16.8333 0.333332 15 0.333332C13.1667 0.333332 11.6667 1.83333 11.6667 3.66667C11.6667 5.5 13.1667 7 15 7Z" fill="currentColor"/>
</svg>
