<svg aria-hidden="true" viewBox="0 0 17 17" fill="none" xmlns="http://www.w3.org/2000/svg">
<path d="M8.33333 16.6667C7.18056 16.6667 6.09722 16.4478 5.08333 16.01C4.06944 15.5728 3.1875 14.9792 2.4375 14.2292C1.6875 13.4792 1.09389 12.5972 0.656667 11.5833C0.218889 10.5694 0 9.48611 0 8.33333C0 7.18056 0.218889 6.09722 0.656667 5.08333C1.09389 4.06944 1.6875 3.1875 2.4375 2.4375C3.1875 1.6875 4.06944 1.09361 5.08333 0.655833C6.09722 0.218611 7.18056 0 8.33333 0C9.48611 0 10.5694 0.218611 11.5833 0.655833C12.5972 1.09361 13.4792 1.6875 14.2292 2.4375C14.9792 3.1875 15.5728 4.06944 16.01 5.08333C16.4478 6.09722 16.6667 7.18056 16.6667 8.33333C16.6667 9.48611 16.4478 10.5694 16.01 11.5833C15.5728 12.5972 14.9792 13.4792 14.2292 14.2292C13.4792 14.9792 12.5972 15.5728 11.5833 16.01C10.5694 16.4478 9.48611 16.6667 8.33333 16.6667ZM9.16667 14.9375C10.8194 14.7292 12.205 14.0033 13.3233 12.76C14.4411 11.5172 15 10.0417 15 8.33333C15 6.625 14.4411 5.14917 13.3233 3.90583C12.205 2.66306 10.8194 1.9375 9.16667 1.72917V14.9375Z" fill="currentColor"/>
</svg>
