<svg aria-hidden="true" viewBox="0 0 24 24" fill="none" xmlns="http://www.w3.org/2000/svg">
<path fill-rule="evenodd" clip-rule="evenodd" d="M4 6.835C4 6.37384 4.37384 6 4.835 6H19.835C20.2962 6 20.67 6.37384 20.67 6.835C20.67 7.29616 20.2962 7.67 19.835 7.67H4.835C4.37384 7.67 4 7.29616 4 6.835ZM4 11.835C4 11.3738 4.37384 11 4.835 11H19.835C20.2962 11 20.67 11.3738 20.67 11.835C20.67 12.2962 20.2962 12.67 19.835 12.67H4.835C4.37384 12.67 4 12.2962 4 11.835ZM4 16.835C4 16.3738 4.37384 16 4.835 16H19.835C20.2962 16 20.67 16.3738 20.67 16.835C20.67 17.2962 20.2962 17.67 19.835 17.67H4.835C4.37384 17.67 4 17.2962 4 16.835Z" fill="currentColor"/>
</svg>
