<svg aria-hidden="true" viewBox="0 0 16 14" fill="none" xmlns="http://www.w3.org/2000/svg">
<path d="M11.0019 3.74682e-05C11.1566 0.00138204 11.3071 0.0505374 11.4328 0.140766C11.5585 0.230995 11.6532 0.357883 11.7039 0.504037L15.9539 12.754C16.0181 12.9417 16.0054 13.1471 15.9185 13.3254C15.8316 13.5037 15.6776 13.6403 15.4903 13.7053C15.3029 13.7704 15.0974 13.7586 14.9188 13.6725C14.7401 13.5864 14.6028 13.4331 14.5369 13.246L13.2369 9.50004H8.5799L7.1999 13.259C7.14744 13.4023 7.05253 13.5261 6.92784 13.6141C6.80315 13.702 6.65462 13.7498 6.50206 13.7511C6.3495 13.7524 6.20017 13.7071 6.074 13.6214C5.94783 13.5356 5.85081 13.4134 5.7959 13.271L4.9149 11H2.2519L1.4529 13.25C1.38427 13.4345 1.2459 13.5845 1.06764 13.6679C0.889372 13.7512 0.685494 13.7611 0.499967 13.6955C0.31444 13.6299 0.162129 13.4941 0.075879 13.3172C-0.0103714 13.1403 -0.0236511 12.9366 0.0389039 12.75L2.7879 5.00004C2.83896 4.85547 2.9331 4.73002 3.05764 4.64059C3.18218 4.55116 3.33113 4.50205 3.48444 4.49987C3.63774 4.49769 3.78803 4.54255 3.91506 4.6284C4.04209 4.71426 4.13976 4.83698 4.1949 4.98004L6.4769 10.875L10.2909 0.490037C10.3445 0.345053 10.4415 0.220161 10.5688 0.13245C10.6961 0.0447394 10.8473 -0.00150714 11.0019 3.74682e-05ZM2.7829 9.50004H4.3359L3.5259 7.40704L2.7829 9.50004ZM10.9749 2.98004L9.1309 8.00004H12.7169L10.9749 2.98004Z" fill="currentColor"/>
</svg>
