<svg aria-hidden="true" viewBox="0 0 8 11" fill="none" xmlns="http://www.w3.org/2000/svg">
<path d="M4.928 1.554C3.92933 1.554 3.164 1.86667 2.632 2.492C2.10933 3.108 1.848 3.96667 1.848 5.068C1.848 5.59067 1.90867 6.07133 2.03 6.51C2.16067 6.93933 2.34733 7.308 2.59 7.616C2.842 7.924 3.15 8.16667 3.514 8.344C3.88733 8.512 4.32133 8.596 4.816 8.596C5.124 8.596 5.39 8.58667 5.614 8.568C5.838 8.54 6.01533 8.50733 6.146 8.47V4.984H7.91V9.646C7.66733 9.73933 7.25667 9.842 6.678 9.954C6.09933 10.066 5.432 10.122 4.676 10.122C3.976 10.122 3.33667 10.01 2.758 9.786C2.17933 9.562 1.68467 9.23533 1.274 8.806C0.872667 8.37667 0.56 7.84933 0.336 7.224C0.112 6.59867 0 5.88 0 5.068C0 4.256 0.121333 3.53733 0.364 2.912C0.616 2.28667 0.956667 1.75933 1.386 1.33C1.81533 0.891334 2.31933 0.56 2.898 0.336C3.47667 0.112 4.09267 0 4.746 0C5.194 0 5.59067 0.0326667 5.936 0.0980003C6.29067 0.154 6.594 0.219333 6.846 0.294C7.098 0.368667 7.30333 0.448001 7.462 0.532001C7.63 0.616 7.74667 0.676666 7.812 0.714L7.28 2.156C7 1.988 6.65 1.848 6.23 1.736C5.81933 1.61467 5.38533 1.554 4.928 1.554Z" fill="currentColor"/>
</svg>
